<?xml version="1.0" standalone="no"?>
<!DOCTYPE svg PUBLIC "-//W3C//DTD SVG 20010904//EN"
 "http://www.w3.org/TR/2001/REC-SVG-20010904/DTD/svg10.dtd">
<svg version="1.0" xmlns="http://www.w3.org/2000/svg"
 width="176.000000pt" height="160.000000pt" viewBox="0 0 176.000000 160.000000"
 preserveAspectRatio="xMidYMid meet">

<g transform="translate(0.000000,160.000000) scale(0.100000,-0.100000)"
fill="#000000" stroke="none">
<path d="M904 1473 c-31 -65 -56 -127 -56 -138 0 -11 73 -176 161 -368 89
-191 161 -353 161 -360 0 -27 -25 -37 -95 -37 -42 0 -78 -5 -87 -12 -14 -11
-118 -226 -118 -243 0 -3 91 -5 203 -5 111 0 212 -3 224 -6 16 -5 37 -40 85
-146 47 -105 69 -142 86 -149 41 -16 205 -11 230 7 12 8 22 20 22 26 0 14
-688 1518 -702 1536 -6 6 -21 12 -35 12 -21 0 -31 -15 -79 -117z"/>
<path d="M550 704 c-102 -223 -193 -413 -203 -422 -26 -24 -46 -7 -84 72 -27
55 -37 66 -58 66 -35 0 -195 -108 -195 -132 0 -36 61 -153 102 -195 117 -120
316 -117 430 6 35 37 72 109 191 368 81 177 147 328 147 336 0 14 -136 307
-142 307 -2 0 -86 -183 -188 -406z"/>
</g>
</svg>
